# xmcd
#
# Track frame offsets:
#	150
#	14309
#	31963
#	48890
#	65361
#	79986
#	96460
#	114384
#	130022
#	142995
#	158803
#	175466
#	191033
#	213401
#
# Disc length: 3227 seconds
#
# Revision: 1
# Processed by: cddbd v1.4PL0 Copyright (c) Steve Scherf et al.
# Submitted via: audiograbber 1.80
#
DISCID=be0c990e
DTITLE=Dixie Chicks - Wide Open Spaces
DYEAR=1900
DGENRE=
TTITLE0=I Can Love You Better
TTITLE1=Wide Open Spaces
TTITLE2=Loving Arms
TTITLE3=There's Your Trouble
TTITLE4=You Were Mine
TTITLE5=Never Say Die
TTITLE6=Tonight the HEartache's on Me
TTITLE7=Let "Er Rip
TTITLE8=Once You've Loved Somebody
TTITLE9=I'll Take Care of You
TTITLE10=Am I the Only One
TTITLE11=Give It Up or Let Me Go
TTITLE12=extra
TTITLE13=extra 2
EXTD=
EXTT0=
EXTT1=
EXTT2=
EXTT3=
EXTT4=
EXTT5=
EXTT6=
EXTT7=
EXTT8=
EXTT9=
EXTT10=
EXTT11=
EXTT12=
EXTT13=
PLAYORDER=
